# Tiled2Unity generated file. Do not modify by hand.
# Wavefront file for 'DunegonMap_mesh_0002.obj'

# Vertices (Count = 100)
v -144 -160 0
v -160 -160 0
v -160 -144 0
v -144 -144 0
v 0 -160 0
v -16 -160 0
v -16 -144 0
v 0 -144 0
v -144 -144 0
v -160 -144 0
v -160 -128 0
v -144 -128 0
v 0 -144 0
v -16 -144 0
v -16 -128 0
v 0 -128 0
v -80 -128 0
v -96 -128 0
v -96 -112 0
v -80 -112 0
v -64 -128 0
v -80 -128 0
v -80 -112 0
v -64 -112 0
v 0 -96 0
v -16 -96 0
v -16 -80 0
v 0 -80 0
v -144 -48 0
v -160 -48 0
v -160 -32 0
v -144 -32 0
v -96 -48 0
v -112 -48 0
v -112 -32 0
v -96 -32 0
v -80 -48 0
v -96 -48 0
v -96 -32 0
v -80 -32 0
v -64 -48 0
v -80 -48 0
v -80 -32 0
v -64 -32 0
v -16 -48 0
v -32 -48 0
v -32 -32 0
v -16 -32 0
v 0 -48 0
v -16 -48 0
v -16 -32 0
v 0 -32 0
v -144 -32 0
v -160 -32 0
v -160 -16 0
v -144 -16 0
v -128 -32 0
v -144 -32 0
v -144 -16 0
v -128 -16 0
v -112 -32 0
v -128 -32 0
v -128 -16 0
v -112 -16 0
v -80 -32 0
v -96 -32 0
v -96 -16 0
v -80 -16 0
v -64 -32 0
v -80 -32 0
v -80 -16 0
v -64 -16 0
v -32 -32 0
v -48 -32 0
v -48 -16 0
v -32 -16 0
v -16 -32 0
v -32 -32 0
v -32 -16 0
v -16 -16 0
v 0 -32 0
v -16 -32 0
v -16 -16 0
v 0 -16 0
v -144 -16 0
v -160 -16 0
v -160 0 0
v -144 0 0
v -80 -16 0
v -96 -16 0
v -96 0 0
v -80 0 0
v -64 -16 0
v -80 -16 0
v -80 0 0
v -64 0 0
v 0 -16 0
v -16 -16 0
v -16 0 0
v 0 0 0

# Texture cooridinates (Count = 38)
vt 0.8125 0.1875
vt 0.875 0.1875
vt 0.875 0.25
vt 0.8125 0.25
vt 0.875 0.3125
vt 0.8125 0.3125
vt 0.9375 0.125
vt 1 0.125
vt 1 0.1875
vt 0.9375 0.1875
vt 0.875 0.125
vt 0.0625 0.75
vt 0.125 0.75
vt 0.125 0.8125
vt 0.0625 0.8125
vt 0.8125 0.125
vt 0.75 0.25
vt 0.75 0.3125
vt 0 0.625
vt 0.0625 0.625
vt 0.0625 0.6875
vt 0 0.6875
vt 0.375 0.5
vt 0.4375 0.5
vt 0.4375 0.5625
vt 0.375 0.5625
vt 0.1875 0.875
vt 0.25 0.875
vt 0.25 0.9375
vt 0.1875 0.9375
vt 0.25 1
vt 0.1875 1
vt 0 0.75
vt 0.3125 0.875
vt 0.3125 0.9375
vt 0.4375 0.625
vt 0.375 0.625
vt 0 0.8125

# Normal
vn 0 0 -1

# Mesh description
g DunegonMap_mesh_0002

# Faces
f 1/1/1 2/2/1 3/3/1 4/4/1
f 5/1/1 6/2/1 7/3/1 8/4/1
f 9/4/1 10/3/1 11/5/1 12/6/1
f 13/4/1 14/3/1 15/5/1 16/6/1
f 17/7/1 18/8/1 19/9/1 20/10/1
f 21/11/1 22/7/1 23/10/1 24/2/1
f 25/12/1 26/13/1 27/14/1 28/15/1
f 29/16/1 30/11/1 31/2/1 32/1/1
f 33/17/1 34/4/1 35/6/1 36/18/1
f 37/19/1 38/20/1 39/21/1 40/22/1
f 41/19/1 42/20/1 43/21/1 44/22/1
f 45/23/1 46/24/1 47/25/1 48/26/1
f 49/16/1 50/11/1 51/2/1 52/1/1
f 53/1/1 54/2/1 55/3/1 56/4/1
f 57/27/1 58/28/1 59/29/1 60/30/1
f 61/30/1 62/29/1 63/31/1 64/32/1
f 65/22/1 66/21/1 67/12/1 68/33/1
f 69/22/1 70/21/1 71/12/1 72/33/1
f 73/28/1 74/34/1 75/35/1 76/29/1
f 77/26/1 78/25/1 79/36/1 80/37/1
f 81/1/1 82/2/1 83/3/1 84/4/1
f 85/4/1 86/3/1 87/5/1 88/6/1
f 89/33/1 90/12/1 91/15/1 92/38/1
f 93/33/1 94/12/1 95/15/1 96/38/1
f 97/4/1 98/3/1 99/5/1 100/6/1

