# Tiled2Unity generated file. Do not modify by hand.
# Wavefront file for 'FourSquares_mesh_0005.obj'

# Vertices (Count = 168)
v -256 -416 0
v -272 -416 0
v -272 -400 0
v -256 -400 0
v -288 -400 0
v -304 -400 0
v -304 -384 0
v -288 -384 0
v -256 -400 0
v -272 -400 0
v -272 -384 0
v -256 -384 0
v -224 -400 0
v -240 -400 0
v -240 -384 0
v -224 -384 0
v -192 -400 0
v -208 -400 0
v -208 -384 0
v -192 -384 0
v -464 -384 0
v -480 -384 0
v -480 -368 0
v -464 -368 0
v -288 -384 0
v -304 -384 0
v -304 -368 0
v -288 -368 0
v -224 -384 0
v -240 -384 0
v -240 -368 0
v -224 -368 0
v -464 -368 0
v -480 -368 0
v -480 -352 0
v -464 -352 0
v -352 -368 0
v -368 -368 0
v -368 -352 0
v -352 -352 0
v -336 -368 0
v -352 -368 0
v -352 -352 0
v -336 -352 0
v -32 -368 0
v -48 -368 0
v -48 -352 0
v -32 -352 0
v -336 -352 0
v -352 -352 0
v -352 -336 0
v -336 -336 0
v -32 -352 0
v -48 -352 0
v -48 -336 0
v -32 -336 0
v -320 -80 0
v -336 -80 0
v -336 -64 0
v -320 -64 0
v -240 -80 0
v -256 -80 0
v -256 -64 0
v -240 -64 0
v -176 -80 0
v -192 -80 0
v -192 -64 0
v -176 -64 0
v -320 -64 0
v -336 -64 0
v -336 -48 0
v -320 -48 0
v -288 -64 0
v -304 -64 0
v -304 -48 0
v -288 -48 0
v -256 -64 0
v -272 -64 0
v -272 -48 0
v -256 -48 0
v -240 -64 0
v -256 -64 0
v -256 -48 0
v -240 -48 0
v -224 -64 0
v -240 -64 0
v -240 -48 0
v -224 -48 0
v -176 -64 0
v -192 -64 0
v -192 -48 0
v -176 -48 0
v -96 -48 0
v -112 -48 0
v -112 -32 0
v -96 -32 0
v -80 -48 0
v -96 -48 0
v -96 -32 0
v -80 -32 0
v -464 -32 0
v -480 -32 0
v -480 -16 0
v -464 -16 0
v -448 -32 0
v -464 -32 0
v -464 -16 0
v -448 -16 0
v -416 -32 0
v -432 -32 0
v -432 -16 0
v -416 -16 0
v -368 -32 0
v -384 -32 0
v -384 -16 0
v -368 -16 0
v -352 -32 0
v -368 -32 0
v -368 -16 0
v -352 -16 0
v -160 -32 0
v -176 -32 0
v -176 -16 0
v -160 -16 0
v -144 -32 0
v -160 -32 0
v -160 -16 0
v -144 -16 0
v -128 -32 0
v -144 -32 0
v -144 -16 0
v -128 -16 0
v -96 -32 0
v -112 -32 0
v -112 -16 0
v -96 -16 0
v -80 -32 0
v -96 -32 0
v -96 -16 0
v -80 -16 0
v -32 -32 0
v -48 -32 0
v -48 -16 0
v -32 -16 0
v -16 -32 0
v -32 -32 0
v -32 -16 0
v -16 -16 0
v -416 -16 0
v -432 -16 0
v -432 0 0
v -416 0 0
v -352 -16 0
v -368 -16 0
v -368 0 0
v -352 0 0
v -96 -16 0
v -112 -16 0
v -112 0 0
v -96 0 0
v -80 -16 0
v -96 -16 0
v -96 0 0
v -80 0 0
v -16 -16 0
v -32 -16 0
v -32 0 0
v -16 0 0

# Texture cooridinates (Count = 38)
vt 0.1875 0.8125
vt 0.25 0.8125
vt 0.25 0.875
vt 0.1875 0.875
vt 0.25 0.9375
vt 0.3125 0.9375
vt 0.3125 1
vt 0.25 1
vt 0.1875 0.9375
vt 0.3125 0.75
vt 0.375 0.75
vt 0.375 0.8125
vt 0.3125 0.8125
vt 0.3125 0.875
vt 0 0.75
vt 0.0625 0.75
vt 0.0625 0.8125
vt 0 0.8125
vt 0.25 0.75
vt 0.3125 0.5
vt 0.375 0.5
vt 0.375 0.5625
vt 0.3125 0.5625
vt 0.4375 0.5
vt 0.4375 0.5625
vt 0.375 0.625
vt 0.3125 0.625
vt 0.1875 1
vt 0.4375 0.625
vt 0.0625 0.625
vt 0.125 0.625
vt 0.125 0.6875
vt 0.0625 0.6875
vt 0.8125 0.6875
vt 0.875 0.6875
vt 0.875 0.75
vt 0.8125 0.75
vt 0.125 0.75

# Normal
vn 0 0 -1

# Mesh description
g FourSquares_mesh_0005

# Faces
f 1/1/1 2/2/1 3/3/1 4/4/1
f 5/5/1 6/6/1 7/7/1 8/8/1
f 9/4/1 10/3/1 11/5/1 12/9/1
f 13/10/1 14/11/1 15/12/1 16/13/1
f 17/3/1 18/14/1 19/6/1 20/5/1
f 21/1/1 22/2/1 23/3/1 24/4/1
f 25/15/1 26/16/1 27/17/1 28/18/1
f 29/15/1 30/16/1 31/17/1 32/18/1
f 33/4/1 34/3/1 35/5/1 36/9/1
f 37/19/1 38/10/1 39/13/1 40/2/1
f 41/10/1 42/11/1 43/12/1 44/13/1
f 45/5/1 46/6/1 47/7/1 48/8/1
f 49/15/1 50/16/1 51/17/1 52/18/1
f 53/15/1 54/16/1 55/17/1 56/18/1
f 57/20/1 58/21/1 59/22/1 60/23/1
f 61/1/1 62/2/1 63/3/1 64/4/1
f 65/21/1 66/24/1 67/25/1 68/22/1
f 69/23/1 70/22/1 71/26/1 72/27/1
f 73/2/1 74/13/1 75/14/1 76/3/1
f 77/9/1 78/5/1 79/8/1 80/28/1
f 81/4/1 82/3/1 83/5/1 84/9/1
f 85/19/1 86/10/1 87/13/1 88/2/1
f 89/22/1 90/25/1 91/29/1 92/26/1
f 93/30/1 94/31/1 95/32/1 96/33/1
f 97/30/1 98/31/1 99/32/1 100/33/1
f 101/3/1 102/14/1 103/6/1 104/5/1
f 105/2/1 106/13/1 107/14/1 108/3/1
f 109/5/1 110/6/1 111/7/1 112/8/1
f 113/19/1 114/10/1 115/13/1 116/2/1
f 117/10/1 118/11/1 119/12/1 120/13/1
f 121/19/1 122/10/1 123/13/1 124/2/1
f 125/34/1 126/35/1 127/36/1 128/37/1
f 129/2/1 130/13/1 131/14/1 132/3/1
f 133/33/1 134/32/1 135/38/1 136/16/1
f 137/33/1 138/32/1 139/38/1 140/16/1
f 141/34/1 142/35/1 143/36/1 144/37/1
f 145/10/1 146/11/1 147/12/1 148/13/1
f 149/15/1 150/16/1 151/17/1 152/18/1
f 153/15/1 154/16/1 155/17/1 156/18/1
f 157/15/1 158/16/1 159/17/1 160/18/1
f 161/15/1 162/16/1 163/17/1 164/18/1
f 165/15/1 166/16/1 167/17/1 168/18/1

