# Tiled2Unity generated file. Do not modify by hand.
# Wavefront file for 'FourSquares_mesh_0006.obj'

# Vertices (Count = 116)
v -160 -464 0
v -176 -464 0
v -176 -448 0
v -160 -448 0
v -304 -416 0
v -320 -416 0
v -320 -400 0
v -304 -400 0
v -288 -416 0
v -304 -416 0
v -304 -400 0
v -288 -400 0
v -272 -416 0
v -288 -416 0
v -288 -400 0
v -272 -400 0
v -288 -400 0
v -304 -400 0
v -304 -384 0
v -288 -384 0
v -272 -400 0
v -288 -400 0
v -288 -384 0
v -272 -384 0
v -368 -384 0
v -384 -384 0
v -384 -368 0
v -368 -368 0
v -144 -384 0
v -160 -384 0
v -160 -368 0
v -144 -368 0
v -32 -384 0
v -48 -384 0
v -48 -368 0
v -32 -368 0
v -16 -384 0
v -32 -384 0
v -32 -368 0
v -16 -368 0
v -368 -368 0
v -384 -368 0
v -384 -352 0
v -368 -352 0
v -144 -368 0
v -160 -368 0
v -160 -352 0
v -144 -352 0
v -16 -368 0
v -32 -368 0
v -32 -352 0
v -16 -352 0
v -336 -128 0
v -352 -128 0
v -352 -112 0
v -336 -112 0
v -160 -128 0
v -176 -128 0
v -176 -112 0
v -160 -112 0
v -480 -48 0
v -496 -48 0
v -496 -32 0
v -480 -32 0
v -400 -48 0
v -416 -48 0
v -416 -32 0
v -400 -32 0
v -384 -48 0
v -400 -48 0
v -400 -32 0
v -384 -32 0
v -368 -48 0
v -384 -48 0
v -384 -32 0
v -368 -32 0
v -160 -48 0
v -176 -48 0
v -176 -32 0
v -160 -32 0
v -64 -48 0
v -80 -48 0
v -80 -32 0
v -64 -32 0
v -48 -48 0
v -64 -48 0
v -64 -32 0
v -48 -32 0
v -32 -48 0
v -48 -48 0
v -48 -32 0
v -32 -32 0
v -400 -32 0
v -416 -32 0
v -416 -16 0
v -400 -16 0
v -384 -32 0
v -400 -32 0
v -400 -16 0
v -384 -16 0
v -368 -32 0
v -384 -32 0
v -384 -16 0
v -368 -16 0
v -64 -32 0
v -80 -32 0
v -80 -16 0
v -64 -16 0
v -48 -32 0
v -64 -32 0
v -64 -16 0
v -48 -16 0
v -32 -32 0
v -48 -32 0
v -48 -16 0
v -32 -16 0

# Texture cooridinates (Count = 13)
vt 0.0625 0.75
vt 0.125 0.75
vt 0.125 0.8125
vt 0.0625 0.8125
vt 0.3125 0.5
vt 0.375 0.5
vt 0.375 0.5625
vt 0.3125 0.5625
vt 0.4375 0.5
vt 0.4375 0.5625
vt 0.375 0.625
vt 0.3125 0.625
vt 0.4375 0.625

# Normal
vn 0 0 -1

# Mesh description
g FourSquares_mesh_0006

# Faces
f 1/1/1 2/2/1 3/3/1 4/4/1
f 5/1/1 6/2/1 7/3/1 8/4/1
f 9/5/1 10/6/1 11/7/1 12/8/1
f 13/6/1 14/9/1 15/10/1 16/7/1
f 17/8/1 18/7/1 19/11/1 20/12/1
f 21/7/1 22/10/1 23/13/1 24/11/1
f 25/5/1 26/6/1 27/7/1 28/8/1
f 29/6/1 30/9/1 31/10/1 32/7/1
f 33/1/1 34/2/1 35/3/1 36/4/1
f 37/5/1 38/6/1 39/7/1 40/8/1
f 41/8/1 42/7/1 43/11/1 44/12/1
f 45/7/1 46/10/1 47/13/1 48/11/1
f 49/8/1 50/7/1 51/11/1 52/12/1
f 53/1/1 54/2/1 55/3/1 56/4/1
f 57/1/1 58/2/1 59/3/1 60/4/1
f 61/1/1 62/2/1 63/3/1 64/4/1
f 65/5/1 66/6/1 67/7/1 68/8/1
f 69/6/1 70/9/1 71/10/1 72/7/1
f 73/5/1 74/6/1 75/7/1 76/8/1
f 77/1/1 78/2/1 79/3/1 80/4/1
f 81/5/1 82/6/1 83/7/1 84/8/1
f 85/6/1 86/9/1 87/10/1 88/7/1
f 89/5/1 90/6/1 91/7/1 92/8/1
f 93/8/1 94/7/1 95/11/1 96/12/1
f 97/7/1 98/10/1 99/13/1 100/11/1
f 101/8/1 102/7/1 103/11/1 104/12/1
f 105/8/1 106/7/1 107/11/1 108/12/1
f 109/7/1 110/10/1 111/13/1 112/11/1
f 113/8/1 114/7/1 115/11/1 116/12/1

