# Tiled2Unity generated file. Do not modify by hand.
# Wavefront file for 'BigSquare_mesh_0005.obj'

# Vertices (Count = 536)
v -240 -224 0
v -256 -224 0
v -256 -208 0
v -240 -208 0
v -224 -224 0
v -240 -224 0
v -240 -208 0
v -224 -208 0
v -208 -224 0
v -224 -224 0
v -224 -208 0
v -208 -208 0
v -192 -224 0
v -208 -224 0
v -208 -208 0
v -192 -208 0
v -176 -224 0
v -192 -224 0
v -192 -208 0
v -176 -208 0
v -160 -224 0
v -176 -224 0
v -176 -208 0
v -160 -208 0
v -144 -224 0
v -160 -224 0
v -160 -208 0
v -144 -208 0
v -128 -224 0
v -144 -224 0
v -144 -208 0
v -128 -208 0
v -112 -224 0
v -128 -224 0
v -128 -208 0
v -112 -208 0
v -96 -224 0
v -112 -224 0
v -112 -208 0
v -96 -208 0
v -80 -224 0
v -96 -224 0
v -96 -208 0
v -80 -208 0
v -64 -224 0
v -80 -224 0
v -80 -208 0
v -64 -208 0
v -48 -224 0
v -64 -224 0
v -64 -208 0
v -48 -208 0
v -32 -224 0
v -48 -224 0
v -48 -208 0
v -32 -208 0
v -16 -224 0
v -32 -224 0
v -32 -208 0
v -16 -208 0
v 0 -224 0
v -16 -224 0
v -16 -208 0
v 0 -208 0
v -240 -208 0
v -256 -208 0
v -256 -192 0
v -240 -192 0
v -224 -208 0
v -240 -208 0
v -240 -192 0
v -224 -192 0
v -208 -208 0
v -224 -208 0
v -224 -192 0
v -208 -192 0
v -192 -208 0
v -208 -208 0
v -208 -192 0
v -192 -192 0
v -176 -208 0
v -192 -208 0
v -192 -192 0
v -176 -192 0
v -160 -208 0
v -176 -208 0
v -176 -192 0
v -160 -192 0
v -144 -208 0
v -160 -208 0
v -160 -192 0
v -144 -192 0
v -128 -208 0
v -144 -208 0
v -144 -192 0
v -128 -192 0
v -112 -208 0
v -128 -208 0
v -128 -192 0
v -112 -192 0
v -96 -208 0
v -112 -208 0
v -112 -192 0
v -96 -192 0
v -80 -208 0
v -96 -208 0
v -96 -192 0
v -80 -192 0
v -64 -208 0
v -80 -208 0
v -80 -192 0
v -64 -192 0
v -48 -208 0
v -64 -208 0
v -64 -192 0
v -48 -192 0
v -32 -208 0
v -48 -208 0
v -48 -192 0
v -32 -192 0
v -16 -208 0
v -32 -208 0
v -32 -192 0
v -16 -192 0
v 0 -208 0
v -16 -208 0
v -16 -192 0
v 0 -192 0
v -240 -192 0
v -256 -192 0
v -256 -176 0
v -240 -176 0
v 0 -192 0
v -16 -192 0
v -16 -176 0
v 0 -176 0
v -240 -176 0
v -256 -176 0
v -256 -160 0
v -240 -160 0
v -192 -176 0
v -208 -176 0
v -208 -160 0
v -192 -160 0
v -176 -176 0
v -192 -176 0
v -192 -160 0
v -176 -160 0
v -160 -176 0
v -176 -176 0
v -176 -160 0
v -160 -160 0
v -144 -176 0
v -160 -176 0
v -160 -160 0
v -144 -160 0
v -128 -176 0
v -144 -176 0
v -144 -160 0
v -128 -160 0
v -112 -176 0
v -128 -176 0
v -128 -160 0
v -112 -160 0
v -96 -176 0
v -112 -176 0
v -112 -160 0
v -96 -160 0
v -80 -176 0
v -96 -176 0
v -96 -160 0
v -80 -160 0
v -64 -176 0
v -80 -176 0
v -80 -160 0
v -64 -160 0
v -48 -176 0
v -64 -176 0
v -64 -160 0
v -48 -160 0
v -32 -176 0
v -48 -176 0
v -48 -160 0
v -32 -160 0
v -16 -176 0
v -32 -176 0
v -32 -160 0
v -16 -160 0
v 0 -176 0
v -16 -176 0
v -16 -160 0
v 0 -160 0
v -240 -160 0
v -256 -160 0
v -256 -144 0
v -240 -144 0
v -192 -160 0
v -208 -160 0
v -208 -144 0
v -192 -144 0
v -176 -160 0
v -192 -160 0
v -192 -144 0
v -176 -144 0
v -160 -160 0
v -176 -160 0
v -176 -144 0
v -160 -144 0
v -144 -160 0
v -160 -160 0
v -160 -144 0
v -144 -144 0
v -128 -160 0
v -144 -160 0
v -144 -144 0
v -128 -144 0
v -112 -160 0
v -128 -160 0
v -128 -144 0
v -112 -144 0
v -96 -160 0
v -112 -160 0
v -112 -144 0
v -96 -144 0
v -80 -160 0
v -96 -160 0
v -96 -144 0
v -80 -144 0
v -64 -160 0
v -80 -160 0
v -80 -144 0
v -64 -144 0
v -48 -160 0
v -64 -160 0
v -64 -144 0
v -48 -144 0
v -32 -160 0
v -48 -160 0
v -48 -144 0
v -32 -144 0
v -16 -160 0
v -32 -160 0
v -32 -144 0
v -16 -144 0
v 0 -160 0
v -16 -160 0
v -16 -144 0
v 0 -144 0
v -240 -144 0
v -256 -144 0
v -256 -128 0
v -240 -128 0
v -192 -144 0
v -208 -144 0
v -208 -128 0
v -192 -128 0
v -240 -128 0
v -256 -128 0
v -256 -112 0
v -240 -112 0
v -192 -128 0
v -208 -128 0
v -208 -112 0
v -192 -112 0
v -240 -112 0
v -256 -112 0
v -256 -96 0
v -240 -96 0
v -192 -112 0
v -208 -112 0
v -208 -96 0
v -192 -96 0
v -144 -112 0
v -160 -112 0
v -160 -96 0
v -144 -96 0
v -128 -112 0
v -144 -112 0
v -144 -96 0
v -128 -96 0
v -112 -112 0
v -128 -112 0
v -128 -96 0
v -112 -96 0
v -96 -112 0
v -112 -112 0
v -112 -96 0
v -96 -96 0
v -80 -112 0
v -96 -112 0
v -96 -96 0
v -80 -96 0
v -64 -112 0
v -80 -112 0
v -80 -96 0
v -64 -96 0
v -48 -112 0
v -64 -112 0
v -64 -96 0
v -48 -96 0
v -32 -112 0
v -48 -112 0
v -48 -96 0
v -32 -96 0
v -16 -112 0
v -32 -112 0
v -32 -96 0
v -16 -96 0
v 0 -112 0
v -16 -112 0
v -16 -96 0
v 0 -96 0
v -240 -96 0
v -256 -96 0
v -256 -80 0
v -240 -80 0
v -192 -96 0
v -208 -96 0
v -208 -80 0
v -192 -80 0
v -176 -96 0
v -192 -96 0
v -192 -80 0
v -176 -80 0
v -160 -96 0
v -176 -96 0
v -176 -80 0
v -160 -80 0
v -144 -96 0
v -160 -96 0
v -160 -80 0
v -144 -80 0
v -128 -96 0
v -144 -96 0
v -144 -80 0
v -128 -80 0
v -112 -96 0
v -128 -96 0
v -128 -80 0
v -112 -80 0
v -96 -96 0
v -112 -96 0
v -112 -80 0
v -96 -80 0
v -80 -96 0
v -96 -96 0
v -96 -80 0
v -80 -80 0
v -64 -96 0
v -80 -96 0
v -80 -80 0
v -64 -80 0
v -48 -96 0
v -64 -96 0
v -64 -80 0
v -48 -80 0
v -32 -96 0
v -48 -96 0
v -48 -80 0
v -32 -80 0
v -16 -96 0
v -32 -96 0
v -32 -80 0
v -16 -80 0
v 0 -96 0
v -16 -96 0
v -16 -80 0
v 0 -80 0
v -240 -80 0
v -256 -80 0
v -256 -64 0
v -240 -64 0
v -192 -80 0
v -208 -80 0
v -208 -64 0
v -192 -64 0
v -176 -80 0
v -192 -80 0
v -192 -64 0
v -176 -64 0
v -160 -80 0
v -176 -80 0
v -176 -64 0
v -160 -64 0
v -144 -80 0
v -160 -80 0
v -160 -64 0
v -144 -64 0
v 0 -80 0
v -16 -80 0
v -16 -64 0
v 0 -64 0
v -240 -64 0
v -256 -64 0
v -256 -48 0
v -240 -48 0
v 0 -64 0
v -16 -64 0
v -16 -48 0
v 0 -48 0
v -240 -48 0
v -256 -48 0
v -256 -32 0
v -240 -32 0
v -224 -48 0
v -240 -48 0
v -240 -32 0
v -224 -32 0
v -208 -48 0
v -224 -48 0
v -224 -32 0
v -208 -32 0
v -192 -48 0
v -208 -48 0
v -208 -32 0
v -192 -32 0
v -176 -48 0
v -192 -48 0
v -192 -32 0
v -176 -32 0
v -160 -48 0
v -176 -48 0
v -176 -32 0
v -160 -32 0
v -144 -48 0
v -160 -48 0
v -160 -32 0
v -144 -32 0
v 0 -48 0
v -16 -48 0
v -16 -32 0
v 0 -32 0
v -240 -32 0
v -256 -32 0
v -256 -16 0
v -240 -16 0
v -224 -32 0
v -240 -32 0
v -240 -16 0
v -224 -16 0
v -208 -32 0
v -224 -32 0
v -224 -16 0
v -208 -16 0
v -192 -32 0
v -208 -32 0
v -208 -16 0
v -192 -16 0
v -176 -32 0
v -192 -32 0
v -192 -16 0
v -176 -16 0
v -160 -32 0
v -176 -32 0
v -176 -16 0
v -160 -16 0
v -144 -32 0
v -160 -32 0
v -160 -16 0
v -144 -16 0
v -128 -32 0
v -144 -32 0
v -144 -16 0
v -128 -16 0
v -112 -32 0
v -128 -32 0
v -128 -16 0
v -112 -16 0
v -96 -32 0
v -112 -32 0
v -112 -16 0
v -96 -16 0
v -80 -32 0
v -96 -32 0
v -96 -16 0
v -80 -16 0
v -64 -32 0
v -80 -32 0
v -80 -16 0
v -64 -16 0
v -48 -32 0
v -64 -32 0
v -64 -16 0
v -48 -16 0
v -32 -32 0
v -48 -32 0
v -48 -16 0
v -32 -16 0
v -16 -32 0
v -32 -32 0
v -32 -16 0
v -16 -16 0
v 0 -32 0
v -16 -32 0
v -16 -16 0
v 0 -16 0
v -144 -16 0
v -160 -16 0
v -160 0 0
v -144 0 0
v -128 -16 0
v -144 -16 0
v -144 0 0
v -128 0 0
v -112 -16 0
v -128 -16 0
v -128 0 0
v -112 0 0
v -96 -16 0
v -112 -16 0
v -112 0 0
v -96 0 0
v -80 -16 0
v -96 -16 0
v -96 0 0
v -80 0 0
v -64 -16 0
v -80 -16 0
v -80 0 0
v -64 0 0
v -48 -16 0
v -64 -16 0
v -64 0 0
v -48 0 0
v -32 -16 0
v -48 -16 0
v -48 0 0
v -32 0 0
v -16 -16 0
v -32 -16 0
v -32 0 0
v -16 0 0
v 0 -16 0
v -16 -16 0
v -16 0 0
v 0 0 0

# Texture cooridinates (Count = 20)
vt 0.125 0.75
vt 0.1875 0.75
vt 0.1875 0.8125
vt 0.125 0.8125
vt 0.0625 0.75
vt 0.0625 0.8125
vt 0 0.75
vt 0 0.8125
vt 0.1875 0.875
vt 0.125 0.875
vt 0.0625 0.875
vt 0 0.875
vt 0.1875 0.9375
vt 0.125 0.9375
vt 0.0625 0.9375
vt 0 0.9375
vt 0.125 1
vt 0.0625 1
vt 0 1
vt 0.1875 1

# Normal
vn 0 0 -1

# Mesh description
g BigSquare_mesh_0005

# Faces
f 1/1/1 2/2/1 3/3/1 4/4/1
f 5/5/1 6/1/1 7/4/1 8/6/1
f 9/5/1 10/1/1 11/4/1 12/6/1
f 13/5/1 14/1/1 15/4/1 16/6/1
f 17/5/1 18/1/1 19/4/1 20/6/1
f 21/5/1 22/1/1 23/4/1 24/6/1
f 25/5/1 26/1/1 27/4/1 28/6/1
f 29/5/1 30/1/1 31/4/1 32/6/1
f 33/5/1 34/1/1 35/4/1 36/6/1
f 37/5/1 38/1/1 39/4/1 40/6/1
f 41/5/1 42/1/1 43/4/1 44/6/1
f 45/5/1 46/1/1 47/4/1 48/6/1
f 49/5/1 50/1/1 51/4/1 52/6/1
f 53/5/1 54/1/1 55/4/1 56/6/1
f 57/5/1 58/1/1 59/4/1 60/6/1
f 61/7/1 62/5/1 63/6/1 64/8/1
f 65/4/1 66/3/1 67/9/1 68/10/1
f 69/6/1 70/4/1 71/10/1 72/11/1
f 73/6/1 74/4/1 75/10/1 76/11/1
f 77/6/1 78/4/1 79/10/1 80/11/1
f 81/6/1 82/4/1 83/10/1 84/11/1
f 85/6/1 86/4/1 87/10/1 88/11/1
f 89/6/1 90/4/1 91/10/1 92/11/1
f 93/6/1 94/4/1 95/10/1 96/11/1
f 97/6/1 98/4/1 99/10/1 100/11/1
f 101/6/1 102/4/1 103/10/1 104/11/1
f 105/6/1 106/4/1 107/10/1 108/11/1
f 109/6/1 110/4/1 111/10/1 112/11/1
f 113/6/1 114/4/1 115/10/1 116/11/1
f 117/6/1 118/4/1 119/10/1 120/11/1
f 121/6/1 122/4/1 123/10/1 124/11/1
f 125/8/1 126/6/1 127/11/1 128/12/1
f 129/10/1 130/9/1 131/13/1 132/14/1
f 133/8/1 134/6/1 135/11/1 136/12/1
f 137/10/1 138/9/1 139/13/1 140/14/1
f 141/7/1 142/5/1 143/6/1 144/8/1
f 145/11/1 146/10/1 147/14/1 148/15/1
f 149/11/1 150/10/1 151/14/1 152/15/1
f 153/11/1 154/10/1 155/14/1 156/15/1
f 157/11/1 158/10/1 159/14/1 160/15/1
f 161/11/1 162/10/1 163/14/1 164/15/1
f 165/11/1 166/10/1 167/14/1 168/15/1
f 169/11/1 170/10/1 171/14/1 172/15/1
f 173/11/1 174/10/1 175/14/1 176/15/1
f 177/11/1 178/10/1 179/14/1 180/15/1
f 181/11/1 182/10/1 183/14/1 184/15/1
f 185/11/1 186/10/1 187/14/1 188/15/1
f 189/12/1 190/11/1 191/15/1 192/16/1
f 193/4/1 194/3/1 195/9/1 196/10/1
f 197/8/1 198/6/1 199/11/1 200/12/1
f 201/15/1 202/14/1 203/17/1 204/18/1
f 205/15/1 206/14/1 207/17/1 208/18/1
f 209/15/1 210/14/1 211/17/1 212/18/1
f 213/15/1 214/14/1 215/17/1 216/18/1
f 217/15/1 218/14/1 219/17/1 220/18/1
f 221/15/1 222/14/1 223/17/1 224/18/1
f 225/15/1 226/14/1 227/17/1 228/18/1
f 229/15/1 230/14/1 231/17/1 232/18/1
f 233/15/1 234/14/1 235/17/1 236/18/1
f 237/15/1 238/14/1 239/17/1 240/18/1
f 241/15/1 242/14/1 243/17/1 244/18/1
f 245/16/1 246/15/1 247/18/1 248/19/1
f 249/10/1 250/9/1 251/13/1 252/14/1
f 253/12/1 254/11/1 255/15/1 256/16/1
f 257/10/1 258/9/1 259/13/1 260/14/1
f 261/12/1 262/11/1 263/15/1 264/16/1
f 265/10/1 266/9/1 267/13/1 268/14/1
f 269/8/1 270/6/1 271/11/1 272/12/1
f 273/1/1 274/2/1 275/3/1 276/4/1
f 277/5/1 278/1/1 279/4/1 280/6/1
f 281/5/1 282/1/1 283/4/1 284/6/1
f 285/5/1 286/1/1 287/4/1 288/6/1
f 289/5/1 290/1/1 291/4/1 292/6/1
f 293/5/1 294/1/1 295/4/1 296/6/1
f 297/5/1 298/1/1 299/4/1 300/6/1
f 301/5/1 302/1/1 303/4/1 304/6/1
f 305/5/1 306/1/1 307/4/1 308/6/1
f 309/7/1 310/5/1 311/6/1 312/8/1
f 313/10/1 314/9/1 315/13/1 316/14/1
f 317/12/1 318/11/1 319/15/1 320/16/1
f 321/11/1 322/10/1 323/14/1 324/15/1
f 325/11/1 326/10/1 327/14/1 328/15/1
f 329/4/1 330/3/1 331/9/1 332/10/1
f 333/6/1 334/4/1 335/10/1 336/11/1
f 337/6/1 338/4/1 339/10/1 340/11/1
f 341/6/1 342/4/1 343/10/1 344/11/1
f 345/6/1 346/4/1 347/10/1 348/11/1
f 349/6/1 350/4/1 351/10/1 352/11/1
f 353/6/1 354/4/1 355/10/1 356/11/1
f 357/6/1 358/4/1 359/10/1 360/11/1
f 361/6/1 362/4/1 363/10/1 364/11/1
f 365/8/1 366/6/1 367/11/1 368/12/1
f 369/10/1 370/9/1 371/13/1 372/14/1
f 373/16/1 374/15/1 375/18/1 376/19/1
f 377/15/1 378/14/1 379/17/1 380/18/1
f 381/15/1 382/14/1 383/17/1 384/18/1
f 385/14/1 386/13/1 387/20/1 388/17/1
f 389/8/1 390/6/1 391/11/1 392/12/1
f 393/4/1 394/3/1 395/9/1 396/10/1
f 397/12/1 398/11/1 399/15/1 400/16/1
f 401/10/1 402/9/1 403/13/1 404/14/1
f 405/5/1 406/1/1 407/4/1 408/6/1
f 409/11/1 410/10/1 411/14/1 412/15/1
f 413/11/1 414/10/1 415/14/1 416/15/1
f 417/11/1 418/10/1 419/14/1 420/15/1
f 421/11/1 422/10/1 423/14/1 424/15/1
f 425/11/1 426/10/1 427/14/1 428/15/1
f 429/8/1 430/6/1 431/11/1 432/12/1
f 433/14/1 434/13/1 435/20/1 436/17/1
f 437/6/1 438/4/1 439/10/1 440/11/1
f 441/15/1 442/14/1 443/17/1 444/18/1
f 445/15/1 446/14/1 447/17/1 448/18/1
f 449/15/1 450/14/1 451/17/1 452/18/1
f 453/15/1 454/14/1 455/17/1 456/18/1
f 457/10/1 458/9/1 459/13/1 460/14/1
f 461/11/1 462/10/1 463/14/1 464/15/1
f 465/11/1 466/10/1 467/14/1 468/15/1
f 469/11/1 470/10/1 471/14/1 472/15/1
f 473/11/1 474/10/1 475/14/1 476/15/1
f 477/11/1 478/10/1 479/14/1 480/15/1
f 481/11/1 482/10/1 483/14/1 484/15/1
f 485/11/1 486/10/1 487/14/1 488/15/1
f 489/11/1 490/10/1 491/14/1 492/15/1
f 493/12/1 494/11/1 495/15/1 496/16/1
f 497/14/1 498/13/1 499/20/1 500/17/1
f 501/15/1 502/14/1 503/17/1 504/18/1
f 505/15/1 506/14/1 507/17/1 508/18/1
f 509/15/1 510/14/1 511/17/1 512/18/1
f 513/15/1 514/14/1 515/17/1 516/18/1
f 517/15/1 518/14/1 519/17/1 520/18/1
f 521/15/1 522/14/1 523/17/1 524/18/1
f 525/15/1 526/14/1 527/17/1 528/18/1
f 529/15/1 530/14/1 531/17/1 532/18/1
f 533/16/1 534/15/1 535/18/1 536/19/1

