# Tiled2Unity generated file. Do not modify by hand.
# Wavefront file for 'BigSquare_mesh_0003.obj'

# Vertices (Count = 28)
v -192 -176 0
v -208 -176 0
v -208 -160 0
v -192 -160 0
v -192 -160 0
v -208 -160 0
v -208 -144 0
v -192 -144 0
v -192 -96 0
v -208 -96 0
v -208 -80 0
v -192 -80 0
v -144 -96 0
v -160 -96 0
v -160 -80 0
v -144 -80 0
v -192 -80 0
v -208 -80 0
v -208 -64 0
v -192 -64 0
v -144 -80 0
v -160 -80 0
v -160 -64 0
v -144 -64 0
v -144 -32 0
v -160 -32 0
v -160 -16 0
v -144 -16 0

# Texture cooridinates (Count = 6)
vt 0.0625 0.875
vt 0.125 0.875
vt 0.125 0.9375
vt 0.0625 0.9375
vt 0.125 1
vt 0.0625 1

# Normal
vn 0 0 -1

# Mesh description
g BigSquare_mesh_0003

# Faces
f 1/1/1 2/2/1 3/3/1 4/4/1
f 5/4/1 6/3/1 7/5/1 8/6/1
f 9/1/1 10/2/1 11/3/1 12/4/1
f 13/1/1 14/2/1 15/3/1 16/4/1
f 17/4/1 18/3/1 19/5/1 20/6/1
f 21/4/1 22/3/1 23/5/1 24/6/1
f 25/4/1 26/3/1 27/5/1 28/6/1

