# Tiled2Unity generated file. Do not modify by hand.
# Wavefront file for 'BigSquare_mesh_0006.obj'

# Vertices (Count = 68)
v -112 -192 0
v -128 -192 0
v -128 -176 0
v -112 -176 0
v -96 -192 0
v -112 -192 0
v -112 -176 0
v -96 -176 0
v -16 -192 0
v -32 -192 0
v -32 -176 0
v -16 -176 0
v -176 -176 0
v -192 -176 0
v -192 -160 0
v -176 -160 0
v -112 -176 0
v -128 -176 0
v -128 -160 0
v -112 -160 0
v -96 -176 0
v -112 -176 0
v -112 -160 0
v -96 -160 0
v -32 -176 0
v -48 -176 0
v -48 -160 0
v -32 -160 0
v -208 -160 0
v -224 -160 0
v -224 -144 0
v -208 -144 0
v -112 -160 0
v -128 -160 0
v -128 -144 0
v -112 -144 0
v -96 -160 0
v -112 -160 0
v -112 -144 0
v -96 -144 0
v -224 -48 0
v -240 -48 0
v -240 -32 0
v -224 -32 0
v -176 -48 0
v -192 -48 0
v -192 -32 0
v -176 -32 0
v -128 -48 0
v -144 -48 0
v -144 -32 0
v -128 -32 0
v -32 -48 0
v -48 -48 0
v -48 -32 0
v -32 -32 0
v -96 -32 0
v -112 -32 0
v -112 -16 0
v -96 -16 0
v -32 -32 0
v -48 -32 0
v -48 -16 0
v -32 -16 0
v -16 -32 0
v -32 -32 0
v -32 -16 0
v -16 -16 0

# Texture cooridinates (Count = 29)
vt 0.0625 0.625
vt 0.125 0.625
vt 0.125 0.6875
vt 0.0625 0.6875
vt 0.0625 0.75
vt 0.125 0.75
vt 0.125 0.8125
vt 0.0625 0.8125
vt 0.25 0.875
vt 0.3125 0.875
vt 0.3125 0.9375
vt 0.25 0.9375
vt 0 0.75
vt 0 0.8125
vt 0.3125 0.75
vt 0.375 0.75
vt 0.375 0.8125
vt 0.3125 0.8125
vt 0.4375 0.9375
vt 0.5 0.9375
vt 0.5 1
vt 0.4375 1
vt 0.1875 0.8125
vt 0.25 0.8125
vt 0.1875 0.875
vt 0.3125 1
vt 0.25 1
vt 0.1875 0.9375
vt 0.1875 1

# Normal
vn 0 0 -1

# Mesh description
g BigSquare_mesh_0006

# Faces
f 1/1/1 2/2/1 3/3/1 4/4/1
f 5/1/1 6/2/1 7/3/1 8/4/1
f 9/5/1 10/6/1 11/7/1 12/8/1
f 13/9/1 14/10/1 15/11/1 16/12/1
f 17/4/1 18/3/1 19/6/1 20/5/1
f 21/4/1 22/3/1 23/6/1 24/5/1
f 25/9/1 26/10/1 27/11/1 28/12/1
f 29/5/1 30/6/1 31/7/1 32/8/1
f 33/13/1 34/5/1 35/8/1 36/14/1
f 37/13/1 38/5/1 39/8/1 40/14/1
f 41/15/1 42/16/1 43/17/1 44/18/1
f 45/19/1 46/20/1 47/21/1 48/22/1
f 49/5/1 50/6/1 51/7/1 52/8/1
f 53/23/1 54/24/1 55/9/1 56/25/1
f 57/12/1 58/11/1 59/26/1 60/27/1
f 61/25/1 62/9/1 63/12/1 64/28/1
f 65/28/1 66/12/1 67/27/1 68/29/1

