# Tiled2Unity generated file. Do not modify by hand.
# Wavefront file for 'TestRoom_mesh_0002.obj'

# Vertices (Count = 88)
v -496 -512 0
v -512 -512 0
v -512 -496 0
v -496 -496 0
v 0 -512 0
v -16 -512 0
v -16 -496 0
v 0 -496 0
v -496 -496 0
v -512 -496 0
v -512 -480 0
v -496 -480 0
v 0 -496 0
v -16 -496 0
v -16 -480 0
v 0 -480 0
v -496 -48 0
v -512 -48 0
v -512 -32 0
v -496 -32 0
v 0 -48 0
v -16 -48 0
v -16 -32 0
v 0 -32 0
v -496 -32 0
v -512 -32 0
v -512 -16 0
v -496 -16 0
v -448 -32 0
v -464 -32 0
v -464 -16 0
v -448 -16 0
v -432 -32 0
v -448 -32 0
v -448 -16 0
v -432 -16 0
v -416 -32 0
v -432 -32 0
v -432 -16 0
v -416 -16 0
v -400 -32 0
v -416 -32 0
v -416 -16 0
v -400 -16 0
v -384 -32 0
v -400 -32 0
v -400 -16 0
v -384 -16 0
v -368 -32 0
v -384 -32 0
v -384 -16 0
v -368 -16 0
v 0 -32 0
v -16 -32 0
v -16 -16 0
v 0 -16 0
v -496 -16 0
v -512 -16 0
v -512 0 0
v -496 0 0
v -448 -16 0
v -464 -16 0
v -464 0 0
v -448 0 0
v -432 -16 0
v -448 -16 0
v -448 0 0
v -432 0 0
v -416 -16 0
v -432 -16 0
v -432 0 0
v -416 0 0
v -400 -16 0
v -416 -16 0
v -416 0 0
v -400 0 0
v -384 -16 0
v -400 -16 0
v -400 0 0
v -384 0 0
v -368 -16 0
v -384 -16 0
v -384 0 0
v -368 0 0
v 0 -16 0
v -16 -16 0
v -16 0 0
v 0 0 0

# Texture cooridinates (Count = 30)
vt 0.375 0.6875
vt 0.4375 0.6875
vt 0.4375 0.75
vt 0.375 0.75
vt 0.4375 0.8125
vt 0.375 0.8125
vt 0.375 0.625
vt 0.4375 0.625
vt 0.5625 0.75
vt 0.625 0.75
vt 0.625 0.8125
vt 0.5625 0.8125
vt 0.5 0.75
vt 0.5 0.8125
vt 0.625 0.875
vt 0.6875 0.875
vt 0.6875 0.9375
vt 0.625 0.9375
vt 0.6875 0.75
vt 0.6875 0.8125
vt 0.4375 0.5
vt 0.5 0.5
vt 0.5 0.5625
vt 0.4375 0.5625
vt 0.5625 0.875
vt 0.5 0.875
vt 0.4375 0.875
vt 0.6875 1
vt 0.625 1
vt 0.5 0.625

# Normal
vn 0 0 -1

# Mesh description
g TestRoom_mesh_0002

# Faces
f 1/1/1 2/2/1 3/3/1 4/4/1
f 5/1/1 6/2/1 7/3/1 8/4/1
f 9/4/1 10/3/1 11/5/1 12/6/1
f 13/4/1 14/3/1 15/5/1 16/6/1
f 17/7/1 18/8/1 19/2/1 20/1/1
f 21/7/1 22/8/1 23/2/1 24/1/1
f 25/1/1 26/2/1 27/3/1 28/4/1
f 29/9/1 30/10/1 31/11/1 32/12/1
f 33/3/1 34/13/1 35/14/1 36/5/1
f 37/13/1 38/9/1 39/12/1 40/14/1
f 41/15/1 42/16/1 43/17/1 44/18/1
f 45/10/1 46/19/1 47/20/1 48/11/1
f 49/21/1 50/22/1 51/23/1 52/24/1
f 53/1/1 54/2/1 55/3/1 56/4/1
f 57/4/1 58/3/1 59/5/1 60/6/1
f 61/12/1 62/11/1 63/15/1 64/25/1
f 65/5/1 66/14/1 67/26/1 68/27/1
f 69/14/1 70/12/1 71/25/1 72/26/1
f 73/18/1 74/17/1 75/28/1 76/29/1
f 77/11/1 78/20/1 79/16/1 80/15/1
f 81/24/1 82/23/1 83/30/1 84/8/1
f 85/4/1 86/3/1 87/5/1 88/6/1

